<svg xmlns="http://www.w3.org/2000/svg" width="611.842" height="75.317" viewBox="0 0 611.842 75.317">
  <g id="SpaceX-Logo" transform="translate(0)">
    <path id="Path_1" data-name="Path 1" d="M101.863,15.094H50.127L48.21,16.527V62.552H62.532V45.293L63.9,44.068h37.966c9.586,0,14.08-2.579,14.08-9.2V24.3c0-6.629-4.494-9.21-14.082-9.21m0,17.015c0,3.118-2.063,3.765-6.557,3.765H64.056L62.53,34.391V24.532L63.9,23.282H95.306c4.494,0,6.557.64,6.557,3.773Z" transform="translate(40.731 12.753)"/>
    <path id="Path_2" data-name="Path 2" d="M109.417,24.069l12.324,18.056-.683,1.749H93.8l-6.957,8.558h40.569l2.812,1.712,6.3,8.688h16.39L116.99,14.775" transform="translate(73.375 12.483)"/>
    <path id="Path_3" data-name="Path 3" d="M194.087,45.915V33.141l1.474-1.273H222.98V23.734H179.524V55.261h64.1v-8.1h-48" transform="translate(151.675 20.052)"/>
    <rect id="Rectangle_3" data-name="Rectangle 3" width="64.779" height="8.944" transform="translate(331.199 27.847)"/>
    <path id="Path_4" data-name="Path 4" d="M147.735,23.567h52.188c-.8-6.636-4.922-8.477-15.368-8.477H147.18c-11.787,0-15.547,2.3-15.547,11.221V51.336c0,8.929,3.76,11.23,15.547,11.23h37.375c10.6,0,14.658-1.991,14.934-8.874H147.735L146.2,52.248V24.534" transform="translate(111.213 12.749)"/>
    <path id="Path_5" data-name="Path 5" d="M54.116,33.59H16.15l-1.118-1.231V24.238l1.112-.86H67.325l.7-1.71c-1.743-4.485-6.258-6.577-14.641-6.577H17.831c-11.78,0-15.545,2.3-15.545,11.221v5.247c0,8.931,3.765,11.228,15.545,11.228H55.711L56.9,43.83v8.49l-.97,1.325H12.6V53.6H1.251s-1.3.651-1.249.956C.97,60.8,5.221,62.567,15.4,62.567H54.116c11.778,0,15.656-2.3,15.656-11.23V44.8c0-8.914-3.878-11.211-15.656-11.211" transform="translate(0 12.75)"/>
    <path id="Path_6" data-name="Path 6" d="M247.014,14.988H225.7l-1.157,2.2L248.213,34.44c4.483-2.6,9.361-5.227,14.667-7.822" transform="translate(189.714 12.663)"/>
    <path id="Path_7" data-name="Path 7" d="M247.075,36.988l20.8,15.169h21.57l.893-2.009-31.06-22.734q-6.188,4.541-12.2,9.575" transform="translate(208.748 23.161)"/>
    <path id="Path_8" data-name="Path 8" d="M244.582,75.282H225.3l-1.629-2.551C236.782,60.073,295.416,5.813,422.867,0c0,0-106.977,3.609-178.285,75.282" transform="translate(188.975)"/>
  </g>
</svg>
